<?xml version="1.0" encoding="UTF-8" standalone="no"?>
<!-- Created with Inkscape (http://www.inkscape.org/) -->

<svg
   version="1.1"
   id="svg2"
   width="222.98666"
   height="66.853333"
   viewBox="0 0 222.98666 66.853333"
   xmlns="http://www.w3.org/2000/svg"
   xmlns:svg="http://www.w3.org/2000/svg">
  <defs
     id="defs6" />
  <g
     id="g10"
     transform="matrix(1.3333333,0,0,-1.3333333,0,66.853332)">
    <g
       id="g12">
      <path
         d="m 27.953,15.421 v -0.39 c 0,-0.196 -0.066,-0.262 -0.281,-0.262 H 22.965 V 0.585 c 0,-0.215 -0.063,-0.281 -0.262,-0.281 H 22.25 c -0.219,0 -0.281,0.066 -0.281,0.281 v 14.184 h -4.707 c -0.219,0 -0.282,0.066 -0.282,0.262 v 0.39 c 0,0.215 0.063,0.281 0.282,0.281 h 10.41 c 0.215,0 0.281,-0.066 0.281,-0.281"
         style="fill:#231f20;fill-opacity:1;fill-rule:nonzero;stroke:none"
         id="path14" />
      <path
         d="m 39.418,15.421 v -0.39 c 0,-0.196 -0.066,-0.262 -0.281,-0.262 H 31.004 V 8.566 h 7.199 c 0.195,0 0.262,-0.067 0.262,-0.258 V 7.917 c 0,-0.218 -0.067,-0.285 -0.262,-0.285 H 31.004 V 1.238 h 8.437 c 0.196,0 0.282,-0.067 0.282,-0.262 V 0.585 c 0,-0.215 -0.086,-0.281 -0.282,-0.281 h -9.152 c -0.219,0 -0.281,0.066 -0.281,0.281 v 14.836 c 0,0.215 0.062,0.281 0.281,0.281 h 8.848 c 0.215,0 0.281,-0.066 0.281,-0.281"
         style="fill:#231f20;fill-opacity:1;fill-rule:nonzero;stroke:none"
         id="path16" />
      <path
         d="m 47.633,16.003 c 3.359,0 4.965,-1.301 5.703,-3.773 0.066,-0.215 0,-0.281 -0.195,-0.367 L 52.75,11.734 c -0.219,-0.043 -0.305,-0.024 -0.371,0.172 -0.649,2.148 -1.93,3.168 -4.746,3.168 -3.211,0 -4.836,-1.649 -4.836,-4.383 V 5.335 c 0,-2.711 1.691,-4.402 4.836,-4.402 2.906,0 4.14,1.129 4.793,3.273 0.086,0.196 0.172,0.239 0.367,0.176 L 53.207,4.23 c 0.195,-0.067 0.238,-0.153 0.172,-0.348 -0.738,-2.472 -2.301,-3.883 -5.746,-3.883 -3.774,0 -5.836,2.039 -5.836,5.356 v 5.316 c 0,3.297 1.996,5.332 5.836,5.332"
         style="fill:#231f20;fill-opacity:1;fill-rule:nonzero;stroke:none"
         id="path18" />
      <path
         d="M 67.164,15.421 V 0.585 c 0,-0.215 -0.066,-0.281 -0.281,-0.281 h -0.457 c -0.196,0 -0.262,0.066 -0.262,0.281 V 7.632 H 56.992 V 0.585 c 0,-0.215 -0.066,-0.281 -0.262,-0.281 h -0.453 c -0.218,0 -0.281,0.066 -0.281,0.281 v 14.836 c 0,0.215 0.063,0.281 0.281,0.281 h 0.453 c 0.196,0 0.262,-0.066 0.262,-0.281 V 8.566 h 9.172 v 6.855 c 0,0.215 0.066,0.281 0.262,0.281 h 0.457 c 0.215,0 0.281,-0.066 0.281,-0.281"
         style="fill:#231f20;fill-opacity:1;fill-rule:nonzero;stroke:none"
         id="path20" />
      <path
         d="M 82.078,15.421 V 0.585 c 0,-0.215 -0.066,-0.281 -0.262,-0.281 h -0.457 c -0.152,0 -0.214,0.023 -0.3,0.172 l -7.7,10.976 c -0.714,1.02 -1.3,2.188 -1.757,2.817 h -0.043 c 0,-0.82 0.129,-2.211 0.129,-3.578 V 0.585 c 0,-0.215 -0.063,-0.281 -0.262,-0.281 h -0.434 c -0.215,0 -0.281,0.066 -0.281,0.281 v 14.836 c 0,0.215 0.066,0.281 0.281,0.281 h 0.434 c 0.176,0 0.262,-0.085 0.304,-0.152 L 79.215,4.859 C 80.016,3.71 80.688,2.495 81.207,1.757 h 0.043 c 0,0.953 -0.148,2.406 -0.148,3.903 v 9.781 c 0,0.195 0.062,0.261 0.281,0.261 h 0.433 c 0.196,0 0.262,-0.066 0.262,-0.281"
         style="fill:#231f20;fill-opacity:1;fill-rule:nonzero;stroke:none"
         id="path22" />
      <path
         d="m 91.023,15.074 c -3.164,0 -4.855,-1.649 -4.855,-4.426 V 5.355 c 0,-2.774 1.691,-4.422 4.855,-4.422 3.125,0 4.817,1.648 4.817,4.422 v 5.293 c 0,2.777 -1.692,4.426 -4.817,4.426 z m 0,0.929 c 3.774,0 5.813,-2.035 5.813,-5.355 V 5.355 c 0,-3.317 -2.039,-5.356 -5.813,-5.356 -3.812,0 -5.855,2.039 -5.855,5.356 v 5.293 c 0,3.32 2.043,5.355 5.855,5.355"
         style="fill:#231f20;fill-opacity:1;fill-rule:nonzero;stroke:none"
         id="path24" />
      <path
         d="M 100.93,15.421 V 1.238 h 7.89 c 0.196,0 0.262,-0.067 0.262,-0.262 V 0.585 c 0,-0.215 -0.066,-0.281 -0.262,-0.281 h -8.609 c -0.215,0 -0.281,0.066 -0.281,0.281 v 14.836 c 0,0.215 0.066,0.281 0.281,0.281 h 0.457 c 0.195,0 0.262,-0.066 0.262,-0.281"
         style="fill:#231f20;fill-opacity:1;fill-rule:nonzero;stroke:none"
         id="path26" />
      <path
         d="m 116.277,15.074 c -3.168,0 -4.859,-1.649 -4.859,-4.426 V 5.355 c 0,-2.774 1.691,-4.422 4.859,-4.422 3.121,0 4.813,1.648 4.813,4.422 v 5.293 c 0,2.777 -1.692,4.426 -4.813,4.426 z m 0,0.929 c 3.774,0 5.809,-2.035 5.809,-5.355 V 5.355 c 0,-3.317 -2.035,-5.356 -5.809,-5.356 -3.816,0 -5.855,2.039 -5.855,5.356 v 5.293 c 0,3.32 2.039,5.355 5.855,5.355"
         style="fill:#231f20;fill-opacity:1;fill-rule:nonzero;stroke:none"
         id="path28" />
      <path
         d="M 136.395,7.765 V 5.226 c 0,-3.164 -2.04,-5.227 -5.813,-5.227 -3.816,0 -5.855,2.063 -5.855,5.379 v 5.293 c 0,3.297 1.996,5.332 5.832,5.332 3.363,0 4.968,-1.301 5.703,-3.773 0.066,-0.215 0,-0.281 -0.192,-0.367 l -0.39,-0.129 c -0.196,-0.067 -0.305,-0.024 -0.371,0.172 -0.649,2.148 -1.93,3.168 -4.75,3.168 -3.231,0 -4.836,-1.649 -4.836,-4.383 V 5.378 c 0,-2.773 1.691,-4.445 4.859,-4.445 3.121,0 4.836,1.672 4.836,4.293 v 1.887 h -4.641 c -0.218,0 -0.281,0.089 -0.281,0.285 v 0.387 c 0,0.195 0.063,0.281 0.281,0.281 h 5.336 c 0.215,0 0.282,-0.086 0.282,-0.301"
         style="fill:#231f20;fill-opacity:1;fill-rule:nonzero;stroke:none"
         id="path30" />
      <path
         d="M 150.027,15.421 144.148,6.636 V 0.585 c 0,-0.215 -0.062,-0.281 -0.257,-0.281 h -0.457 c -0.215,0 -0.282,0.066 -0.282,0.281 V 6.66 l -5.855,8.761 c -0.086,0.149 -0.043,0.281 0.152,0.281 h 0.582 c 0.305,0 0.395,-0.023 0.5,-0.238 l 5.141,-7.785 5.14,7.785 c 0.129,0.215 0.219,0.238 0.524,0.238 h 0.539 c 0.195,0 0.238,-0.132 0.152,-0.281"
         style="fill:#231f20;fill-opacity:1;fill-rule:nonzero;stroke:none"
         id="path32" />
      <path
         d="m 11.445,50.136 c 5.723,0 9.289,-2.34 10.852,-6.504 0.371,-1.078 0.109,-1.633 -1.004,-2.004 l -3.977,-1.414 c -1.152,-0.336 -1.597,-0.148 -2.004,1.004 -0.671,1.672 -1.785,2.414 -3.867,2.414 -2.933,0 -4.086,-1.262 -4.086,-3.863 v -6.762 c 0,-2.605 1.153,-3.867 4.086,-3.867 2.082,0 3.27,0.816 3.867,2.414 0.442,1.152 0.891,1.414 2.004,1.004 l 3.977,-1.41 c 1.113,-0.371 1.375,-0.93 1.004,-2.008 C 20.734,24.98 17.168,22.636 11.445,22.636 4.125,22.636 0,26.613 0,33.042 v 6.688 c 0,6.43 4.125,10.406 11.445,10.406"
         style="fill:#231f20;fill-opacity:1;fill-rule:nonzero;stroke:none"
         id="path34" />
      <path
         d="M 47.078,48.019 38.496,33.413 v -8.66 c 0,-1.152 -0.371,-1.558 -1.562,-1.558 h -4.2 c -1.187,0 -1.597,0.406 -1.597,1.558 v 8.66 L 22.59,48.019 c -0.52,0.851 -0.371,1.558 0.781,1.558 h 4.461 c 1.856,0 2.379,-0.074 3.082,-1.375 l 3.977,-7.578 4.089,7.578 c 0.704,1.301 1.227,1.375 3.047,1.375 h 4.274 c 1.113,0 1.261,-0.707 0.777,-1.558"
         style="fill:#231f20;fill-opacity:1;fill-rule:nonzero;stroke:none"
         id="path36" />
      <path
         d="M 60.902,33.562 H 56.59 v -4.348 h 4.312 c 1.598,0 2.375,0.633 2.375,2.192 0,1.488 -0.777,2.156 -2.375,2.156 z m -0.707,10.07 H 56.59 v -4.086 h 3.605 c 1.489,0 2.266,0.555 2.266,2.008 0,1.445 -0.777,2.078 -2.266,2.078 z m 9.735,-1.078 c 0,-2.488 -0.778,-4.16 -2.676,-5.461 v -0.148 c 2.379,-1.039 3.754,-3.16 3.754,-6.395 0,-4.793 -3.903,-7.355 -9.141,-7.355 H 50.832 c -1.191,0 -1.598,0.406 -1.598,1.558 v 23.266 c 0,1.187 0.407,1.598 1.598,1.598 h 10.887 c 5.129,0 8.211,-2.528 8.211,-7.063"
         style="fill:#231f20;fill-opacity:1;fill-rule:nonzero;stroke:none"
         id="path38" />
      <path
         d="m 92.449,48.019 v -3.348 c 0,-1.187 -0.41,-1.597 -1.597,-1.597 h -9.813 v -3.305 h 7.844 c 1.187,0 1.594,-0.41 1.594,-1.563 v -3.343 c 0,-1.188 -0.407,-1.598 -1.594,-1.598 h -7.844 v -3.566 h 10.145 c 1.152,0 1.562,-0.375 1.562,-1.563 v -3.383 c 0,-1.152 -0.41,-1.558 -1.562,-1.558 H 75.281 c -1.191,0 -1.597,0.406 -1.597,1.558 v 23.266 c 0,1.152 0.406,1.558 1.597,1.558 h 15.571 c 1.187,0 1.597,-0.406 1.597,-1.558"
         style="fill:#231f20;fill-opacity:1;fill-rule:nonzero;stroke:none"
         id="path40" />
      <path
         d="m 106.902,43.074 h -4.015 v -4.903 h 4.015 c 1.559,0 2.453,0.965 2.453,2.489 0,1.488 -0.855,2.414 -2.453,2.414 z m 10.071,-2.45 c 0,-3.644 -1.489,-6.246 -4.016,-7.656 0.371,-0.484 0.707,-1.004 1.004,-1.598 l 3.348,-6.355 c 0.515,-1.004 0.257,-1.82 -0.969,-1.82 h -4.016 c -1.965,0 -2.82,0.484 -3.418,1.785 l -2.375,5.09 c -0.633,1.261 -1.265,1.894 -2.789,1.894 h -0.855 v -7.211 c 0,-1.152 -0.371,-1.558 -1.559,-1.558 h -4.199 c -1.191,0 -1.598,0.406 -1.598,1.558 v 23.266 c 0,1.152 0.407,1.558 1.598,1.558 h 10.59 c 5.609,0 9.254,-3.195 9.254,-8.953"
         style="fill:#231f20;fill-opacity:1;fill-rule:nonzero;stroke:none"
         id="path42" />
      <path
         d="m 131.09,29.14 c 2.566,0 3.863,1.227 3.863,3.418 v 15.461 c 0,1.152 0.375,1.558 1.563,1.558 h 4.199 c 1.191,0 1.597,-0.406 1.597,-1.558 V 32.894 c 0,-6.242 -3.867,-10.258 -11.222,-10.258 -7.32,0 -11.184,4.016 -11.184,10.258 v 15.125 c 0,1.152 0.371,1.558 1.559,1.558 h 4.199 c 1.191,0 1.598,-0.406 1.598,-1.558 V 32.558 c 0,-2.191 1.265,-3.418 3.828,-3.418"
         style="fill:#231f20;fill-opacity:1;fill-rule:nonzero;stroke:none"
         id="path44" />
      <path
         d="m 156.023,50.136 c 5.5,0 8.622,-1.637 10.368,-5.203 0.519,-1.078 0.222,-1.633 -0.895,-2.082 l -3.715,-1.598 c -1,-0.445 -1.41,-0.297 -2.004,0.782 -0.707,1.414 -2.047,1.933 -3.754,1.933 -2.527,0 -3.531,-0.633 -3.531,-1.933 0,-1.598 2.192,-1.934 4.867,-2.266 4.313,-0.594 9.883,-1.637 9.883,-8.66 0,-5.461 -4.937,-8.473 -11.515,-8.473 -5.539,0 -9.403,1.895 -10.817,5.762 -0.406,1.113 -0.074,1.633 1.004,2.043 l 3.492,1.261 c 1.117,0.372 1.637,0.262 2.196,-0.816 0.668,-1.301 2.117,-1.969 4.199,-1.969 2.488,0 3.976,0.52 3.976,2.118 0,1.449 -1.894,1.859 -4.347,2.191 -4.352,0.598 -10.446,1.375 -10.446,8.586 0,4.906 3.942,8.324 11.039,8.324"
         style="fill:#231f20;fill-opacity:1;fill-rule:nonzero;stroke:none"
         id="path46" />
    </g>
  </g>
</svg>
