<?xml version="1.0" encoding="UTF-8" standalone="no"?>
<svg
   version="1.1"
   id="Ebene_1"
   x="0px"
   y="0px"
   width="107.296"
   height="124.6542"
   viewBox="0 0.577 107.296 124.6542"
   enable-background="new 0 0.577 315.896 48.189"
   xml:space="preserve"
   xmlns="http://www.w3.org/2000/svg"
   xmlns:svg="http://www.w3.org/2000/svg"><defs
   id="defs105" />
<g
   id="g367"
   transform="matrix(2.1966292,0,0,2.1966292,0.72081306,-0.69101379)"><path
     fill="#140096"
     d="M 30.179,3.081 C 26.957,-0.11 21.817,-0.251 18.441,2.659 l 17.396,17.402 c 1.62,1.621 4.178,1.625 5.87,0.133 0.026,-0.027 2.801,-2.793 2.801,-2.793 z"
     id="path2" /><path
     fill="#140096"
     d="M 4.173,32.421 18.028,46.28 c 3.222,3.176 8.352,3.309 11.722,0.402 L 12.814,29.761 C 11.21,28.148 8.676,28.136 6.987,29.593 6.96,29.617 4.173,32.421 4.173,32.421 Z"
     id="path4" /><path
     fill="#140096"
     d="m 16.766,4.334 -5.672,5.672 17.283,17.27 c 1.664,1.676 4.465,1.809 6.139,0.152 L 37.19,24.75 Z"
     id="path6" /><path
     fill="#140096"
     d="m 9.423,11.67 -5.761,5.751 17.284,17.273 c 1.665,1.676 4.464,1.809 6.136,0.148 l 2.766,-2.755 z"
     id="path8" /><path
     fill="#140096"
     d="m 45.989,30.428 c 2.894,-3.23 2.934,-8.145 0.118,-11.41 l -20.494,20.474 5.658,5.656 C 45.16,31.257 45.989,30.428 45.989,30.428 Z"
     id="path10" /><path
     fill="#140096"
     d="M 8.345,25.256 2.09,19.002 c -2.912,3.375 -2.835,8.328 0.569,11.879 z"
     id="path12" /></g><g
   id="g98"
   transform="translate(-72.324,105.7762)">
		
		
		
		
		
		
		
		
		
		
		
		
		
		
		
		
		
		
		
		
		
		
		
		
		
		
		
		
		
		
		
		<path
   fill="#1d1d1b"
   d="M 79.428,9.213 H 74.31 v 2.875 h 3.82 v 1.727 H 74.31 V 19.28 H 72.324 V 7.487 h 7.104 z"
   id="path76" />
		<path
   fill="#1d1d1b"
   d="M 91.523,19.28 H 89.654 V 13.815 H 83.521 V 19.28 H 81.659 V 7.487 h 1.862 v 4.602 h 6.133 V 7.487 h 1.869 z"
   id="path78" />
		<path
   fill="#1d1d1b"
   d="m 110.908,19.28 h -1.988 v -7.227 l -3.197,5.23 h -1.427 l -3.2,-5.23 V 19.28 H 99.112 V 7.487 h 1.371 l 4.527,7.441 4.527,-7.441 h 1.371 z"
   id="path80" />
		<path
   fill="#1d1d1b"
   d="m 123.975,14.342 c 0,1.727 -0.491,3.002 -1.504,3.906 -0.858,0.766 -2.143,1.207 -3.527,1.207 -1.375,0 -2.66,-0.441 -3.523,-1.207 -1.012,-0.904 -1.5,-2.18 -1.5,-3.906 V 7.487 h 1.983 v 7.027 c 0,1.084 0.271,1.844 0.856,2.391 0.55,0.531 1.33,0.824 2.184,0.824 0.861,0 1.638,-0.293 2.191,-0.824 0.584,-0.547 0.856,-1.307 0.856,-2.391 V 7.491 h 1.983 v 6.851 z"
   id="path82" />
		<path
   fill="#1d1d1b"
   d="m 120.755,3.768 c -0.628,0.004 -1.112,0.477 -1.112,1.086 0,0.605 0.484,1.082 1.112,1.082 0.628,0.008 1.115,-0.473 1.115,-1.086 0,-0.601 -0.487,-1.082 -1.115,-1.082 z"
   id="path84" />
		<path
   fill="#1d1d1b"
   d="m 117.154,3.768 c -0.627,0 -1.112,0.475 -1.112,1.082 0,0.609 0.485,1.086 1.112,1.086 0.628,0.008 1.116,-0.473 1.116,-1.086 0,-0.601 -0.489,-1.082 -1.116,-1.082 z"
   id="path86" />
		<path
   fill="#1d1d1b"
   d="m 137.547,19.28 h -1.391 l -7.028,-8.219 v 8.219 h -1.984 V 7.491 h 1.391 l 7.028,8.223 V 7.491 h 1.984 z"
   id="path88" />
		<path
   fill="#1d1d1b"
   d="m 144.708,12.323 c -1.156,-0.461 -2.156,-0.863 -2.156,-1.785 0,-0.746 0.633,-1.496 2.047,-1.496 0.73,0 1.512,0.273 2.07,0.713 l 1,-1.432 c -0.979,-0.688 -2.023,-1.006 -3.271,-1.006 -1.859,0 -3.833,1.135 -3.833,3.24 0,1.113 0.531,1.965 1.63,2.605 0.496,0.289 1.045,0.51 1.576,0.715 1.289,0.508 2.4,0.943 2.4,2.148 0,0.48 -0.197,0.92 -0.557,1.232 -0.355,0.303 -0.848,0.471 -1.395,0.471 -1.016,0 -2.078,-0.465 -2.862,-1.25 l -1.27,1.32 c 1.236,1.082 2.663,1.656 4.132,1.656 1.045,0 2.023,-0.348 2.766,-0.973 0.756,-0.645 1.172,-1.527 1.172,-2.496 0,-2.293 -1.914,-3.053 -3.449,-3.662 z"
   id="path90" />
		<polygon
   fill="#1d1d1b"
   points="158.203,9.202 154.996,9.202 154.996,19.272 153.005,19.272 153.005,9.202 149.796,9.202 149.796,7.475 158.203,7.475 "
   id="polygon92" />
		<path
   fill="#1d1d1b"
   d="m 167.253,9.217 h -4.949 v 2.871 h 3.73 v 1.727 h -3.73 v 3.738 h 5.121 v 1.727 h -7.106 V 7.491 h 6.935 v 1.726 z"
   id="path94" />
		<path
   fill="#1d1d1b"
   d="m 175.148,13.799 0.246,-0.082 c 0.445,-0.141 0.828,-0.367 1.148,-0.668 0.648,-0.617 1.02,-1.473 1.02,-2.355 0,-0.873 -0.371,-1.734 -1.02,-2.352 -0.637,-0.58 -1.441,-0.852 -2.531,-0.852 h -4.25 v 11.79 h 1.988 v -5.379 h 1.117 l 4.316,5.379 h 2.438 z m -3.399,-1.621 V 9.217 h 2.125 c 0.793,0 1.098,0.211 1.309,0.438 0.25,0.266 0.395,0.664 0.395,1.059 0,0.379 -0.148,0.777 -0.395,1.043 -0.277,0.301 -0.656,0.422 -1.309,0.422 h -2.125 z"
   id="path96" />
	</g>
</svg>
