<?xml version="1.0" encoding="UTF-8" standalone="no"?>
<svg
   width="645.06836"
   height="593.20032"
   viewBox="0 0 387.04102 355.92018"
   version="1.1"
   id="svg14"
   xmlns="http://www.w3.org/2000/svg"
   xmlns:svg="http://www.w3.org/2000/svg"
   xmlns:rdf="http://www.w3.org/1999/02/22-rdf-syntax-ns#"
   xmlns:cc="http://creativecommons.org/ns#"
   xmlns:dc="http://purl.org/dc/elements/1.1/">
  <metadata
     id="metadata20">
    <rdf:RDF>
      <cc:Work
         rdf:about="">
        <dc:format>image/svg+xml</dc:format>
        <dc:type
           rdf:resource="http://purl.org/dc/dcmitype/StillImage" />
      </cc:Work>
    </rdf:RDF>
  </metadata>
  <defs
     id="defs18" />
  <g
     id="g6"
     style="fill:#333333;fill-opacity:0.937"
     transform="translate(-123.108,277.21117)">
    <path
       id="path2"
       d="m 188.778,3.424 v 74.198 h -20.39 V 48.57 h -24.89 v 29.05 h -20.39 V 3.424 h 20.39 v 27.38 h 24.89 V 3.424 Z m 26.79,75.243 q -4.078,0 -7.634,-1.36 -3.555,-1.357 -6.17,-3.657 -2.51,-2.403 -3.973,-5.643 -1.46,-3.24 -1.46,-7.002 0,-4.18 1.78,-7.628 1.78,-3.45 4.92,-5.957 3.14,-2.508 7.43,-3.867 4.39,-1.358 9.62,-1.358 6.7,0 11.09,2.09 v -1.672 q 0,-3.867 -2.3,-5.748 -2.19,-1.88 -7.21,-1.88 -4.7,0 -8.68,1.566 -3.97,1.47 -8.36,4.39 l -5.75,-12.33 q 10.876,-7 24.78,-7 13.177,0 20.288,5.86 7.11,5.86 7.11,17.56 v 10.66 q 0,2.82 1.05,3.97 1.05,1.05 3.77,1.26 v 16.72 q -2.72,0.52 -5.126,0.73 -2.407,0.32 -4.29,0.32 -5.332,0 -8.156,-1.88 -2.72,-1.98 -3.56,-5.75 l -0.42,-1.98 q -3.66,4.71 -8.47,7.21 -4.81,2.41 -10.25,2.41 z m 5.96,-14.213 q 1.778,0 3.66,-0.522 1.882,-0.628 3.346,-1.568 1.15,-0.836 1.883,-1.777 0.732,-1.045 0.732,-2.09 v -4.075 q -1.78,-0.627 -3.87,-1.045 -2.1,-0.418 -3.77,-0.418 -3.66,0 -6.07,1.77 -2.41,1.77 -2.41,4.49 0,2.3 1.78,3.76 1.88,1.46 4.7,1.46 z m 65.41,14.213 q -3.45,0 -7.424,-0.523 -3.974,-0.522 -7.843,-1.358 -3.76,-0.836 -7.32,-1.986 -3.55,-1.254 -6.16,-2.717 l 7.64,-13.48 q 5.75,3.03 10.98,4.597 5.23,1.568 9.73,1.568 5.23,0 5.23,-2.613 0,-1.36 -2.09,-2.404 -2.09,-1.04 -7.94,-2.5 -5.85,-1.56 -9.83,-3.13 -3.97,-1.56 -6.37,-3.45 -2.41,-1.98 -3.45,-4.28 -1.05,-2.4 -1.05,-5.54 0,-4.18 1.674,-7.73 1.777,-3.55 4.914,-6.16 3.136,-2.61 7.423,-3.97 4.39,-1.46 9.515,-1.46 5.544,0 11.82,1.57 6.38,1.57 12.965,4.6 l -7.64,12.63 q -5.86,-2.72 -9.728,-3.87 -3.87,-1.25 -7.43,-1.25 -2.3,0 -3.763,0.73 -1.36,0.63 -1.36,2.09 0,0.84 0.42,1.47 0.42,0.52 1.47,1.044 1.05,0.523 2.83,1.15 1.88,0.523 4.6,1.15 6.275,1.567 10.56,3.344 4.29,1.68 6.8,3.77 2.613,1.99 3.66,4.6 1.15,2.51 1.15,5.85 0,8.47 -6.484,13.38 -6.38,4.92 -17.465,4.92 z m 66.962,-1.045 -12.445,-20.065 -3.973,4.39 V 77.62 h -19.87 V 1.332 h 19.87 v 41.7 l 14.64,-20.38 h 20.914 l -18.928,24.036 20.81,30.934 h -21.02 z" />
    <path
       id="path4"
       d="m 402.905,78.667 q -7.215,0 -12.862,-2.195 -5.647,-2.3 -9.516,-6.166 -3.764,-3.866 -5.75,-8.883 -1.988,-5.016 -1.988,-10.555 0,-5.956 1.88,-11.286 1.98,-5.33 5.75,-9.3 3.87,-3.972 9.41,-6.27 5.64,-2.405 13.07,-2.405 7.32,0 12.97,2.404 5.64,2.3 9.41,6.27 3.87,3.87 5.75,9.1 1.98,5.12 1.98,10.77 0,1.57 -0.21,3.24 -0.11,1.57 -0.32,2.82 H 393.9 q 0.315,4.39 3.243,6.38 2.927,1.88 6.377,1.88 3.25,0 6.07,-1.46 2.93,-1.46 3.87,-4.07 l 16.84,4.81 q -3.344,6.59 -10.35,10.77 -6.902,4.18 -17.045,4.18 z m 8.784,-34.382 q -0.53,-3.97 -2.93,-6.27 -2.41,-2.3 -6.17,-2.3 -3.77,0 -6.17,2.3 -2.4,2.3 -2.93,6.27 h 18.19 z m 27.54,-42.952 h 19.86 v 53.09 q 0,6.27 5.12,6.27 1.25,0 2.72,-0.42 1.46,-0.417 2.72,-1.15 l 2.51,15.99 q -3.56,1.673 -8.06,2.613 -4.39,0.94 -8.37,0.94 -7.95,0 -12.24,-4.075 -4.29,-4.07 -4.29,-11.8 V 1.34 Z m 37.98,0 h 19.87 v 53.09 q 0,6.27 5.12,6.27 1.25,0 2.72,-0.42 1.46,-0.417 2.72,-1.15 l 2.51,15.99 q -3.56,1.673 -8.06,2.613 -4.39,0.94 -8.37,0.94 -7.95,0 -12.23,-4.075 -4.29,-4.07 -4.29,-11.8 V 1.34 Z" />
  </g>
  <g
     id="g28"
     transform="matrix(3.6521288,0,0,3.6521288,-5.2393099,-12.91758)">
    <path
       id="path8"
       d="M 1.842,77.722 26.586,40.63 1.842,3.537 H 20.4 L 45.144,40.63 20.4,77.722 Z m 0,0"
       style="fill:#453a62" />
    <path
       id="path10"
       d="M 26.586,77.722 51.33,40.63 26.586,3.537 H 45.144 L 94.63,77.722 H 76.074 L 60.61,54.54 45.143,77.722 Z m 0,0"
       style="fill:#5e5086" />
    <path
       id="path12"
       d="M 86.384,56.085 78.136,43.72 h 28.868 V 56.086 H 86.384 Z M 74.012,37.54 65.764,25.175 h 41.24 V 37.54 Z m 0,0"
       style="fill:#8f4e8b" />
  </g>
</svg>
