<?xml version="1.0" encoding="UTF-8" standalone="no"?>
<!-- Created with Inkscape (http://www.inkscape.org/) -->

<svg
   width="310.45587mm"
   height="364.23141mm"
   viewBox="0 0 1100.0405 1290.5838"
   id="svg2"
   version="1.1"
   xmlns:xlink="http://www.w3.org/1999/xlink"
   xmlns="http://www.w3.org/2000/svg"
   xmlns:svg="http://www.w3.org/2000/svg"
   xmlns:rdf="http://www.w3.org/1999/02/22-rdf-syntax-ns#"
   xmlns:cc="http://creativecommons.org/ns#"
   xmlns:dc="http://purl.org/dc/elements/1.1/">
  <defs
     id="defs4">
    <linearGradient
       id="linearGradient5562">
      <stop
         style="stop-color:#699ad7;stop-opacity:1"
         offset="0"
         id="stop5564" />
      <stop
         id="stop5566"
         offset="0.24345198"
         style="stop-color:#7eb1dd;stop-opacity:1" />
      <stop
         style="stop-color:#7ebae4;stop-opacity:1"
         offset="1"
         id="stop5568" />
    </linearGradient>
    <linearGradient
       id="linearGradient5053">
      <stop
         style="stop-color:#415e9a;stop-opacity:1"
         offset="0"
         id="stop5055" />
      <stop
         id="stop5057"
         offset="0.23168644"
         style="stop-color:#4a6baf;stop-opacity:1" />
      <stop
         style="stop-color:#5277c3;stop-opacity:1"
         offset="1"
         id="stop5059" />
    </linearGradient>
    <linearGradient
       xlink:href="#linearGradient5562"
       id="linearGradient5384"
       gradientUnits="userSpaceOnUse"
       gradientTransform="translate(70.650339,-1055.1511)"
       x1="200.59668"
       y1="351.41116"
       x2="290.08701"
       y2="506.18814" />
    <linearGradient
       xlink:href="#linearGradient5053"
       id="linearGradient5386"
       gradientUnits="userSpaceOnUse"
       gradientTransform="translate(864.69589,-1491.3405)"
       x1="-584.19934"
       y1="782.33563"
       x2="-496.29703"
       y2="937.71399" />
  </defs>
  <metadata
     id="metadata7">
    <rdf:RDF>
      <cc:Work
         rdf:about="">
        <dc:format>image/svg+xml</dc:format>
        <dc:type
           rdf:resource="http://purl.org/dc/dcmitype/StillImage" />
      </cc:Work>
    </rdf:RDF>
  </metadata>
  <g
     id="layer3"
     style="display:inline;opacity:1"
     transform="matrix(2.1930968,0,0,2.1930968,-343.18395,2046.8757)">
    <path
       id="path3336-6"
       d="m 309.54892,-710.38827 122.19683,211.67512 -56.15706,0.5268 -32.6236,-56.8692 -32.85645,56.5653 -27.90237,-0.011 -14.29086,-24.6896 46.81047,-80.4901 -33.22946,-57.8257 z"
       style="opacity:1;fill:url(#linearGradient5384);fill-opacity:1;fill-rule:evenodd;stroke:none;stroke-width:3;stroke-linecap:butt;stroke-linejoin:round;stroke-miterlimit:4;stroke-dasharray:none;stroke-opacity:1" />
    <use
       height="100%"
       width="100%"
       transform="rotate(60,407.11155,-715.78724)"
       id="use3439-6"
       xlink:href="#path3336-6"
       y="0"
       x="0" />
    <use
       height="100%"
       width="100%"
       transform="rotate(-60,407.31177,-715.70016)"
       id="use3445-0"
       xlink:href="#path3336-6"
       y="0"
       x="0" />
    <use
       height="100%"
       width="100%"
       transform="rotate(180,407.41868,-715.7565)"
       id="use3449-5"
       xlink:href="#path3336-6"
       y="0"
       x="0" />
    <path
       style="color:#000000;clip-rule:nonzero;display:inline;overflow:visible;visibility:visible;opacity:1;isolation:auto;mix-blend-mode:normal;color-interpolation:sRGB;color-interpolation-filters:linearRGB;solid-color:#000000;solid-opacity:1;fill:url(#linearGradient5386);fill-opacity:1;fill-rule:evenodd;stroke:none;stroke-width:3;stroke-linecap:butt;stroke-linejoin:round;stroke-miterlimit:4;stroke-dasharray:none;stroke-dashoffset:0;stroke-opacity:1;color-rendering:auto;image-rendering:auto;shape-rendering:auto;text-rendering:auto;enable-background:accumulate"
       d="m 309.54892,-710.38827 122.19683,211.67512 -56.15706,0.5268 -32.6236,-56.8692 -32.85645,56.5653 -27.90237,-0.011 -14.29086,-24.6896 46.81047,-80.4901 -33.22946,-57.8256 z"
       id="path4260-0" />
    <use
       height="100%"
       width="100%"
       transform="rotate(120,407.33916,-716.08356)"
       id="use4354-5"
       xlink:href="#path4260-0"
       y="0"
       x="0"
       style="display:inline" />
    <use
       height="100%"
       width="100%"
       transform="rotate(-120,407.28823,-715.86995)"
       id="use4362-2"
       xlink:href="#path4260-0"
       y="0"
       x="0"
       style="display:inline" />
  </g>
  <g
     style="display:inline"
     id="g5329"
     transform="translate(-326.22605,1474.9912)">
    <path
       d="m 1468.5915,-800.79725 c -66.1477,0 -120.5358,48.14083 -120.5358,128.25306 0,80.11223 54.3881,128.25306 120.5358,128.25306 66.1477,0 120.5359,-48.14083 120.5359,-128.25306 0,-80.11223 -54.3882,-128.25306 -120.5359,-128.25306 z m 0,24.98914 c 49.2433,0 86.727,36.74872 86.727,103.26392 0,66.5152 -37.4837,103.26392 -86.727,103.26392 -49.2433,0 -86.727,-36.74872 -86.727,-103.26392 0,-66.5152 37.4837,-103.26392 86.727,-103.26392 z"
       style="font-style:normal;font-variant:normal;font-weight:normal;font-stretch:normal;font-size:367.487px;line-height:125%;font-family:Vegur;-inkscape-font-specification:Vegur;letter-spacing:0px;word-spacing:0px;display:inline;opacity:1;fill:#000000;fill-opacity:1;stroke:none;stroke-width:1px;stroke-linecap:butt;stroke-linejoin:miter;stroke-opacity:1"
       id="path4680"
       transform="matrix(0.9506732,0,0,1.0518862,-336.97152,388.12495)" />
    <path
       d="m 969.15319,-847.11833 h -30.81755 v 139.86428 c 0,19.75484 0.79019,50.96749 1.97548,85.73601 h -1.18529 c -15.40877,-28.84207 -32.79303,-56.49884 -45.04104,-75.46349 l -96.79872,-150.1368 h -42.27536 v 267.87565 h 30.81755 v -139.86427 c 0,-19.75485 -0.79019,-56.89395 -1.97548,-91.26737 h 1.18529 c 22.91561,39.90478 36.34891,62.0302 48.99201,80.99485 l 96.79872,150.13679 h 38.32439 z"
       style="font-style:normal;font-variant:normal;font-weight:normal;font-stretch:normal;font-size:395.097px;line-height:125%;font-family:Vegur;-inkscape-font-specification:Vegur;letter-spacing:0px;word-spacing:0px;display:inline;opacity:1;fill:#000000;fill-opacity:1;stroke:none;stroke-width:1px;stroke-linecap:butt;stroke-linejoin:miter;stroke-opacity:1"
       id="path4683"
       transform="translate(-336.97152,388.12495)" />
    <path
       d="m 1027.8251,-579.24268 h 33.1881 v -191.22686 h -33.1881 z m 16.594,-219.27874 c 11.4578,0 20.5451,-9.08722 20.5451,-20.54503 0,-11.45781 -9.0873,-20.54504 -20.5451,-20.54504 -11.4578,0 -20.545,9.08723 -20.545,20.54504 0,11.45781 9.0872,20.54503 20.545,20.54503 z"
       style="font-style:normal;font-variant:normal;font-weight:normal;font-stretch:normal;font-size:395.097px;line-height:125%;font-family:Vegur;-inkscape-font-specification:Vegur;letter-spacing:0px;word-spacing:0px;display:inline;opacity:1;fill:#000000;fill-opacity:1;stroke:none;stroke-width:1px;stroke-linecap:butt;stroke-linejoin:miter;stroke-opacity:1"
       id="path4685"
       transform="translate(-336.97152,388.12495)" />
    <path
       d="m 1267.7785,-770.46954 h -37.9293 l -46.6214,70.32723 h -1.1853 l -45.0411,-70.32723 h -41.09 l 68.3517,93.24285 v 1.18529 l -70.7223,96.79872 h 37.9293 l 49.7822,-75.85859 h 1.1853 l 49.7822,75.85859 h 41.09 l -72.3027,-98.37911 v -1.18529 z"
       style="font-style:normal;font-variant:normal;font-weight:normal;font-stretch:normal;font-size:395.097px;line-height:125%;font-family:Vegur;-inkscape-font-specification:Vegur;letter-spacing:0px;word-spacing:0px;display:inline;opacity:1;fill:#000000;fill-opacity:1;stroke:none;stroke-width:1px;stroke-linecap:butt;stroke-linejoin:miter;stroke-opacity:1"
       id="path4687"
       transform="translate(-336.97152,388.12495)" />
    <path
       d="m 1523.761,-773.88643 c 0,37.10927 19.3277,57.21012 64.1681,75.37819 34.4034,13.91598 48.3193,26.28573 48.3193,51.79835 0,30.92438 -25.126,46.38657 -58.3697,46.38657 -17.395,0 -37.1093,-2.70588 -58.7564,-10.05042 l -3.479,26.67228 c 18.9412,6.95799 39.8152,9.66387 60.6891,9.66387 51.7984,0 95.0925,-26.28573 95.0925,-79.24374 0,-36.7227 -22.4202,-54.50422 -67.6471,-72.6723 -30.1512,-11.9832 -44.8403,-24.73951 -44.8403,-51.41179 0,-25.89917 22.4202,-40.2017 50.6387,-40.2017 16.6218,0 34.7899,4.2521 47.5462,9.27732 l 3.479,-26.28573 c -14.6891,-6.18488 -32.8572,-9.27732 -52.958,-9.27732 -47.5463,0 -83.8824,27.4454 -83.8824,69.96642 z"
       style="font-style:normal;font-variant:normal;font-weight:normal;font-stretch:normal;font-size:386.555px;line-height:125%;font-family:Vegur;-inkscape-font-specification:Vegur;letter-spacing:0px;word-spacing:0px;display:inline;opacity:1;fill:#000000;fill-opacity:1;stroke:none;stroke-width:1px;stroke-linecap:butt;stroke-linejoin:miter;stroke-opacity:1"
       id="path4677"
       transform="translate(-336.97152,388.12495)" />
  </g>
</svg>
