<?xml version="1.0" encoding="UTF-8" standalone="no"?>
<svg
   width="832.05731"
   height="408.51895"
   fill="#ffffff"
   version="1.1"
   id="svg4"
   viewBox="0 0 320.02204 157.12267"
   xmlns="http://www.w3.org/2000/svg"
   xmlns:svg="http://www.w3.org/2000/svg">
  <defs
     id="defs8" />
  <path
     d="M 196.86868,92.388625 183.19169,79.67024 h -60.04316 l 13.67214,12.7668 z M 136.82067,47.629791 123.14853,60.39659 h 60.04316 l 13.67214,-12.766799 z m 60.04801,-19.278495 -13.6673,-12.77164 h -60.04801 l 13.6673,12.77164 z m -80.03819,12.587665 -9.03407,-9.03407 -33.492875,33.492874 c -1.1997,1.196285 -1.87089,2.82284 -1.863945,4.517035 -0.0055,1.692525 0.66544,3.317095 1.863945,4.512195 L 107.79642,107.91987 116.83049,98.89064 87.85465,69.90996 Z M 245.70882,33.502556 212.23047,0 l -9.02923,9.034071 28.96131,28.97584 -28.96131,28.975839 9.02923,9.03407 33.47835,-33.483189 c 1.21036,-1.210355 1.87363,-2.817705 1.87363,-4.52672 0.002,-1.69225 -0.67277,-3.31503 -1.87363,-4.507355"
     fill="#000000"
     id="path2"
     style="stroke-width:4.84141" />
  <path
     d="m 20.19352,129.43464 c 2.08181,1.74291 3.12271,4.42021 3.12271,8.03674 0,3.61653 -1.06511,6.27447 -3.18565,7.95444 -2.12054,1.67996 -5.38365,2.51753 -9.77965,2.51753 H 5.04475 v 8.77263 H 0 v -29.8957 h 10.26379 c 4.5364,0 7.84308,0.87145 9.92489,2.61436 m -3.57296,12.34559 c 0.96828,-1.06511 1.5202,-2.63856 1.5202,-4.70585 0,-2.06728 -0.63907,-3.53423 -1.92688,-4.38631 -1.28782,-0.85209 -3.29216,-1.28297 -6.02756,-1.28297 H 5.04959 v 11.97764 h 5.80969 c 2.7935,0.005 4.69617,-0.48415 5.71287,-1.59766 m 24.536265,8.10452 c 1.365275,1.59766 3.219535,2.39649 5.56762,2.39649 2.348085,0 4.19266,-0.79883 5.56762,-2.39649 1.37496,-1.59767 2.04792,-3.76662 2.04792,-6.50202 v -16.55762 h 5.04959 v 16.77064 c 0,4.35727 -1.186145,7.62038 -3.553595,9.94426 -2.36745,2.32388 -5.403015,3.48582 -9.111535,3.48582 -3.70852,0 -6.744085,-1.16194 -9.111535,-3.48582 -2.36745,-2.32388 -3.54875,-5.64024 -3.54875,-9.94426 v -16.77064 h 5.04959 v 16.55762 c 0,2.7354 0.68748,4.90435 2.052755,6.50202 M 96.24723,136.54183 c 0,4.93824 -2.144745,8.03674 -6.45844,9.32455 l 7.82856,10.86413 h -6.366455 l -7.14108,-10.05077 h -6.63273 v 10.05077 h -5.04475 V 126.82996 H 83.50464 c 4.56061,0 7.8334,0.77463 9.799015,2.30935 1.96561,1.53473 2.904845,4.00869 2.904845,7.40736 m -6.715035,4.23623 c 0.96828,-0.88597 1.53957,-2.30451 1.53957,-4.26044 0,-1.95593 -0.48415,-3.29216 -1.583145,-4.01837 -1.099,-0.72621 -2.938735,-1.08931 -5.64508,-1.08931 H 77.3851 v 10.6511 h 6.29383 c 2.90485,0 4.84141,-0.48415 5.819375,-1.32655 m 19.157465,15.99118 v -29.90055 h 21.00204 v 4.74458 h -15.95245 v 7.91571 h 14.33057 v 4.49283 h -14.33057 v 7.998 h 16.46079 v 4.74459 z m 42.15416,-25.96448 c -1.47179,0 -2.67246,0.30015 -3.6117,0.9005 -0.93227,0.57886 -1.47436,1.62034 -1.41369,2.71603 0,1.21035 0.47445,2.1399 1.41369,2.77897 0.93924,0.63906 2.93873,1.33139 6.00335,2.07212 3.06461,0.74074 5.32554,1.78164 6.93289,3.12271 1.60735,1.34107 2.32391,3.31637 2.32391,5.92589 0.0685,2.46372 -1.0255,4.81626 -2.95331,6.35193 -1.96558,1.62187 -4.5509,2.43523 -7.74623,2.43523 -4.6768,0 -8.82589,-1.61219 -12.44243,-4.83173 l 3.16629,-3.80535 c 3.02103,2.62405 6.16312,3.93607 9.4117,3.93607 1.62671,0 2.91937,-0.3486 3.87312,-1.04575 0.95377,-0.69716 1.43307,-1.62187 1.43307,-2.77897 0,-1.15709 -0.45026,-2.05275 -1.3556,-2.69666 -0.90534,-0.64391 -2.44491,-1.22488 -4.64776,-1.75259 l -5.00117,-1.45243 c -1.09713,-0.41675 -2.12284,-1.00148 -3.04041,-1.73322 -1.76711,-1.34107 -2.65309,-3.38899 -2.65309,-6.16311 0,-2.77413 1.00701,-4.89951 3.01136,-6.39067 2.00434,-1.49115 4.50251,-2.24641 7.46545,-2.24641 1.93639,0.005 3.85917,0.32375 5.6935,0.94407 1.77726,0.5704 3.4312,1.47045 4.87531,2.6531 l -2.69186,3.80535 c -0.89079,-0.79884 -2.08178,-1.45243 -3.59714,-1.96562 -1.51537,-0.51319 -3.00168,-0.77462 -4.46863,-0.77462 m 36.69787,21.38451 c 1.74296,0 3.24375,-0.2905 4.49285,-0.87146 1.2491,-0.58097 2.56595,-1.5202 3.9312,-2.80802 l 3.25345,3.38899 c -3.1663,3.50518 -7.01035,5.25777 -11.52255,5.25777 -4.5122,0 -8.26915,-1.45242 -11.25145,-4.35727 -2.9823,-2.90484 -4.4686,-6.58431 -4.4686,-11.03841 0,-4.4541 1.5202,-8.15294 4.5509,-11.12072 3.03075,-2.96778 6.8748,-4.4541 11.50805,-4.4541 4.44045,-0.0868 8.6927,1.7913 11.6194,5.1319 l -3.20985,3.51002 c -1.4234,-1.37012 -2.77415,-2.32388 -4.0426,-2.86612 -1.26845,-0.54223 -2.7596,-0.81335 -4.46865,-0.81335 -3.021,0 -5.5676,0.97796 -7.61065,2.93389 -2.0431,1.95593 -3.07915,4.4541 -3.07915,7.48482 -0.0765,2.85324 1.03315,5.61054 3.0646,7.61554 2.0479,2.03339 4.4541,3.06461 7.24275,3.06461 m 46.83095,-15.62323 c 0,4.93824 -2.14955,8.03674 -6.45845,9.32456 l 7.82375,10.86412 h -6.4633 l -7.1459,-10.05077 h -6.63275 v 10.05077 h -5.04475 v -29.90055 h 11.12075 c 4.56545,0 7.82855,0.77463 9.799,2.30936 1.97045,1.53472 2.90485,4.00868 2.90485,7.40735 m -6.71505,4.23624 c 0.9683,-0.88598 1.53955,-2.30451 1.53955,-4.26044 0,-1.95593 -0.484,-3.29216 -1.58309,-4.01837 -1.09906,-0.72622 -2.93876,-1.08932 -5.64996,-1.08932 h -6.4197 v 10.6511 h 6.2938 c 2.84675,0 4.84145,-0.48415 5.8097,-1.32655 m 19.23011,-13.95778 h 5.0496 v 29.90055 h -5.0496 z m 38.66834,2.60468 c 2.08181,1.74291 3.12265,4.42021 3.12265,8.03674 0,3.61653 -1.06509,6.27447 -3.1856,7.95444 -2.1205,1.67996 -5.3256,2.51753 -9.77,2.51753 h -5.311 v 8.77263 h -5.04475 v -29.8957 h 10.26375 c 4.53641,0 7.84311,0.87145 9.92491,2.61436 m -3.57296,12.34559 c 0.9683,-1.06511 1.52021,-2.63856 1.52021,-4.70585 0,-2.06728 -0.64391,-3.53423 -1.9269,-4.38631 -1.28295,-0.85209 -3.29216,-1.28297 -6.02755,-1.28297 h -5.13191 v 11.97764 h 5.80971 c 2.7935,0.005 4.69619,-0.48415 5.7129,-1.59766 m 24.0618,14.94543 v -25.28185 h -9.06795 v -4.6187 h 23.23875 v 4.6187 h -9.06795 v 25.28185 z"
     style="fill:#000000;stroke-width:5"
     id="path395" />
</svg>
