<?xml version="1.0" encoding="UTF-8" standalone="no"?>
<svg
   viewBox="-11.5 -10.23174 23 27.633457"
   version="1.1"
   id="svg302"
   width="23"
   height="27.633457"
   xmlns="http://www.w3.org/2000/svg"
   xmlns:svg="http://www.w3.org/2000/svg"
   xmlns:rdf="http://www.w3.org/1999/02/22-rdf-syntax-ns#"
   xmlns:cc="http://creativecommons.org/ns#"
   xmlns:dc="http://purl.org/dc/elements/1.1/">
  <defs
     id="defs306" />
  <title
     id="title290">React Logo</title>
  <circle
     cx="-1.7763568e-15"
     cy="0.023802815"
     r="2.05"
     fill="#61dafb"
     id="circle292" />
  <g
     stroke="#61dafb"
     stroke-width="1"
     fill="none"
     id="g300"
     transform="translate(0,0.02380282)">
    <ellipse
       rx="11"
       ry="4.1999998"
       id="ellipse294"
       cx="0"
       cy="0" />
    <ellipse
       rx="11"
       ry="4.1999998"
       transform="rotate(60)"
       id="ellipse296"
       cx="0"
       cy="0" />
    <ellipse
       rx="11"
       ry="4.1999998"
       transform="rotate(120)"
       id="ellipse298"
       cx="0"
       cy="0" />
  </g>
  <g
     aria-label="React"
     id="text362"
     style="font-size:8px;fill:#61dafb">
    <path
       d="m -8.0253906,14.554062 q 0.2539062,0.08594 0.4921875,0.367187 0.2421875,0.28125 0.484375,0.773438 l 0.8007812,1.59375 h -0.8476562 l -0.7460938,-1.496094 q -0.2890625,-0.585937 -0.5625,-0.777344 -0.2695312,-0.191406 -0.7382812,-0.191406 h -0.8593749 v 2.464844 h -0.789063 v -5.832031 h 1.7812504 q 1,0 1.4921875,0.417968 0.4921875,0.417969 0.4921875,1.261719 0,0.550781 -0.2578125,0.914063 -0.2539063,0.363281 -0.7421875,0.503906 z m -1.9765624,-2.449219 v 2.070313 h 0.9921874 q 0.5703125,0 0.859375,-0.261719 0.2929687,-0.265625 0.2929687,-0.777344 0,-0.511719 -0.2929687,-0.769531 -0.2890625,-0.261719 -0.859375,-0.261719 z"
       id="path907" />
    <path
       d="m -1.8808594,14.921249 v 0.351563 h -3.3046875 q 0.046875,0.742187 0.4453125,1.132812 0.4023438,0.386719 1.1171875,0.386719 0.4140625,0 0.8007813,-0.101562 0.390625,-0.101563 0.7734375,-0.304688 v 0.679688 q -0.3867188,0.164062 -0.7929688,0.25 -0.40625,0.08594 -0.8242187,0.08594 -1.046875,0 -1.6601563,-0.609375 -0.609375,-0.609375 -0.609375,-1.648437 0,-1.074219 0.578125,-1.703125 0.5820313,-0.632813 1.5664063,-0.632813 0.8828125,0 1.3945312,0.570313 0.515625,0.566406 0.515625,1.542968 z m -0.71875,-0.210937 q -0.00781,-0.589844 -0.3320312,-0.941406 -0.3203125,-0.351563 -0.8515625,-0.351563 -0.6015625,0 -0.9648438,0.339844 -0.359375,0.339844 -0.4140625,0.957031 z"
       id="path909" />
    <path
       d="m 1.2871094,15.089218 q -0.87109377,0 -1.20703128,0.199219 -0.3359375,0.199219 -0.3359375,0.679687 0,0.382813 0.25,0.609375 0.25390626,0.222657 0.6875,0.222657 0.59765628,0 0.95703128,-0.421875 0.3632812,-0.425782 0.3632812,-1.128907 v -0.160156 z m 1.4335937,-0.296875 v 2.496094 h -0.71875 v -0.664063 q -0.2460937,0.398438 -0.6132812,0.589844 -0.3671875,0.1875 -0.89843752,0.1875 -0.671875,0 -1.0703125,-0.375 -0.39453126,-0.378906 -0.39453126,-1.011719 0,-0.738281 0.4921875,-1.113281 0.49609376,-0.375 1.47656251,-0.375 H 2.0019531 v -0.07031 q 0,-0.496094 -0.328125,-0.765625 -0.3242187,-0.273438 -0.91406248,-0.273438 -0.37499999,0 -0.73046874,0.08984 -0.35546876,0.08984 -0.68359375,0.269531 v -0.664062 q 0.39453124,-0.152344 0.76562499,-0.226563 0.37109376,-0.07813 0.72265626,-0.07813 0.94921872,0 1.41796872,0.492188 0.46875,0.492187 0.46875,1.492187 z"
       id="path911" />
    <path
       d="m 7.3496094,13.081406 v 0.671875 q -0.3046875,-0.167969 -0.6132813,-0.25 -0.3046875,-0.08594 -0.6171875,-0.08594 -0.6992187,0 -1.0859375,0.445313 -0.3867187,0.441406 -0.3867187,1.242187 0,0.800781 0.3867187,1.246094 0.3867188,0.441406 1.0859375,0.441406 0.3125,0 0.6171875,-0.08203 0.3085938,-0.08594 0.6132813,-0.253906 v 0.664062 q -0.3007813,0.140625 -0.625,0.210938 -0.3203125,0.07031 -0.6835938,0.07031 -0.9882812,0 -1.5703125,-0.621094 -0.5820312,-0.621093 -0.5820312,-1.675781 0,-1.070312 0.5859375,-1.683594 0.5898437,-0.613281 1.6132812,-0.613281 0.3320313,0 0.6484375,0.07031 0.3164063,0.06641 0.6132813,0.203125 z"
       id="path913" />
    <path
       d="m 9.3105469,11.671249 v 1.242188 h 1.4804691 v 0.558594 H 9.3105469 v 2.375 q 0,0.535156 0.1445312,0.6875 0.1484375,0.152343 0.5976559,0.152343 h 0.738282 v 0.601563 h -0.738282 q -0.8320309,0 -1.1484371,-0.308594 -0.3164063,-0.3125 -0.3164063,-1.132812 v -2.375 H 8.0605469 v -0.558594 h 0.5273437 v -1.242188 z"
       id="path915" />
  </g>
  <metadata
     id="metadata846">
    <rdf:RDF>
      <cc:Work
         rdf:about="">
        <dc:title>React Logo</dc:title>
      </cc:Work>
    </rdf:RDF>
  </metadata>
</svg>
